<svg xmlns="http://www.w3.org/2000/svg" viewBox="0 0 800 600" role="img" aria-labelledby="t d"><title id="t">Bolo de chocolate</title><desc id="d">Ilustração de uma fatia de bolo de chocolate com cobertura</desc><rect width="800" height="600" fill="#f3e2cc"/><circle cx="680" cy="115" r="72" fill="#b94f32" opacity=".15"/><ellipse cx="400" cy="480" rx="275" ry="65" fill="#fffaf3" stroke="#c49b79" stroke-width="8"/><path d="M235 395 410 180l185 215z" fill="#724536" stroke="#48271f" stroke-width="9"/><path d="m235 395 360 0-22 68H258z" fill="#5b3027"/><path d="m270 350 287 0-22 34H247z" fill="#e1a05a"/><path d="M410 180c40 5 134 82 185 215-40-21-68 4-101-7-33-12-45-47-78-35-45 16-74-1-92-24z" fill="#4a2822"/><circle cx="411" cy="172" r="22" fill="#b94f32"/><text x="400" y="565" text-anchor="middle" fill="#6b3d2b" font-family="Georgia" font-size="28">Bolo de chocolate</text></svg>
